<mxfile host="Electron" agent="Mozilla/5.0 (X11; Linux x86_64) AppleWebKit/537.36 (KHTML, like Gecko) draw.io/26.1.1 Chrome/134.0.6998.205 Electron/35.7.2 Safari/537.36" version="26.1.1">
  <diagram name="Page-1" id="SniMOs_Ga-adFO3PLIxX">
    <mxGraphModel dx="1714" dy="951" grid="1" gridSize="10" guides="1" tooltips="1" connect="1" arrows="1" fold="1" page="1" pageScale="1" pageWidth="1169" pageHeight="827" math="0" shadow="0">
      <root>
        <mxCell id="0" />
        <mxCell id="1" parent="0" />
        <mxCell id="M9TQeVOdG1JwByQOwSsy-7" style="edgeStyle=orthogonalEdgeStyle;rounded=0;orthogonalLoop=1;jettySize=auto;html=1;exitX=1;exitY=0.75;exitDx=0;exitDy=0;entryX=0;entryY=0.5;entryDx=0;entryDy=0;startArrow=ERone;startFill=0;endArrow=ERzeroToMany;endFill=0;" edge="1" parent="1" source="M9TQeVOdG1JwByQOwSsy-3" target="M9TQeVOdG1JwByQOwSsy-5">
          <mxGeometry relative="1" as="geometry" />
        </mxCell>
        <mxCell id="M9TQeVOdG1JwByQOwSsy-3" value="&lt;p style=&quot;margin:0px;margin-top:4px;text-align:center;text-decoration:underline;&quot;&gt;&lt;b&gt;User&lt;/b&gt;&lt;/p&gt;&lt;hr size=&quot;1&quot; style=&quot;border-style:solid;&quot;&gt;&lt;p style=&quot;margin:0px;margin-left:8px;&quot;&gt;&lt;i&gt;[PK]&lt;/i&gt;&amp;nbsp;&lt;b&gt;id&lt;/b&gt;&amp;nbsp;:&amp;nbsp;&lt;i&gt;string {uuid7}&lt;br&gt;&lt;/i&gt;&lt;b&gt;oauth_server&lt;/b&gt;&amp;nbsp;:&amp;nbsp;&lt;i&gt;string&lt;/i&gt;&lt;br&gt;&lt;b&gt;oauth_sub&lt;/b&gt;&amp;nbsp;:&amp;nbsp;&lt;i&gt;string&lt;br&gt;&lt;/i&gt;&lt;b&gt;email&lt;/b&gt;&amp;nbsp;:&amp;nbsp;&lt;i&gt;string&lt;br&gt;&lt;/i&gt;&lt;b&gt;username&lt;/b&gt;&amp;nbsp;:&amp;nbsp;&lt;i&gt;string&lt;br&gt;&lt;/i&gt;&lt;b&gt;name&lt;/b&gt;&amp;nbsp;:&amp;nbsp;&lt;i&gt;string&lt;br&gt;&lt;/i&gt;&lt;b&gt;created_at&lt;/b&gt;&amp;nbsp;: &lt;i&gt;string {iso8601 datetime}&lt;br&gt;&lt;/i&gt;&lt;b&gt;last_login_at&lt;/b&gt;&amp;nbsp;: &lt;i&gt;string {&lt;/i&gt;&lt;i&gt;iso8601 datetime}&lt;/i&gt;&lt;br&gt;&lt;/p&gt;" style="verticalAlign=top;align=left;overflow=fill;html=1;whiteSpace=wrap;" vertex="1" parent="1">
          <mxGeometry x="180" y="320" width="240" height="150" as="geometry" />
        </mxCell>
        <mxCell id="M9TQeVOdG1JwByQOwSsy-4" value="&lt;p style=&quot;margin:0px;margin-top:4px;text-align:center;text-decoration:underline;&quot;&gt;&lt;b&gt;TextPaste&lt;/b&gt;&lt;/p&gt;&lt;hr size=&quot;1&quot; style=&quot;border-style:solid;&quot;&gt;&lt;p style=&quot;margin:0px;margin-left:8px;&quot;&gt;&lt;i&gt;[PK]&lt;/i&gt;&amp;nbsp;&lt;b&gt;id&lt;/b&gt;&amp;nbsp;:&amp;nbsp;&lt;i&gt;string {uuid7}&lt;br&gt;&lt;/i&gt;&lt;i&gt;[FK]&amp;nbsp;&lt;/i&gt;&lt;b&gt;user_id&lt;/b&gt;&amp;nbsp;:&amp;nbsp;&lt;i&gt;string {uuid7}&lt;br&gt;&lt;/i&gt;&lt;b&gt;name&lt;/b&gt;&amp;nbsp;:&amp;nbsp;&lt;i&gt;string&lt;/i&gt;&lt;br&gt;&lt;b&gt;contents&lt;/b&gt;&amp;nbsp;:&amp;nbsp;&lt;i&gt;string&lt;/i&gt;&lt;br&gt;&lt;b&gt;created_at&lt;/b&gt;&amp;nbsp;: &lt;i&gt;string {iso8601 datetime}&lt;/i&gt;&lt;br&gt;&lt;/p&gt;" style="verticalAlign=top;align=left;overflow=fill;html=1;whiteSpace=wrap;" vertex="1" parent="1">
          <mxGeometry x="520" y="250" width="220" height="110" as="geometry" />
        </mxCell>
        <mxCell id="M9TQeVOdG1JwByQOwSsy-8" style="edgeStyle=orthogonalEdgeStyle;rounded=0;orthogonalLoop=1;jettySize=auto;html=1;exitX=1;exitY=0.5;exitDx=0;exitDy=0;entryX=0;entryY=0.5;entryDx=0;entryDy=0;startArrow=ERone;startFill=0;endArrow=ERoneToMany;endFill=0;" edge="1" parent="1" source="M9TQeVOdG1JwByQOwSsy-5" target="M9TQeVOdG1JwByQOwSsy-6">
          <mxGeometry relative="1" as="geometry" />
        </mxCell>
        <mxCell id="M9TQeVOdG1JwByQOwSsy-5" value="&lt;p style=&quot;margin:0px;margin-top:4px;text-align:center;text-decoration:underline;&quot;&gt;&lt;b&gt;FilePaste&lt;/b&gt;&lt;/p&gt;&lt;hr size=&quot;1&quot; style=&quot;border-style:solid;&quot;&gt;&lt;p style=&quot;margin:0px;margin-left:8px;&quot;&gt;&lt;i&gt;[PK]&lt;/i&gt;&amp;nbsp;&lt;b&gt;id&lt;/b&gt;&amp;nbsp;:&amp;nbsp;&lt;i&gt;string {uuid7}&lt;br&gt;&lt;/i&gt;&lt;i&gt;[FK]&amp;nbsp;&lt;/i&gt;&lt;b&gt;user_id&lt;/b&gt;&amp;nbsp;:&amp;nbsp;&lt;i&gt;string {uuid7}&lt;br&gt;&lt;/i&gt;&lt;b&gt;name&lt;/b&gt;&amp;nbsp;:&amp;nbsp;&lt;i&gt;string&lt;/i&gt;&lt;br&gt;&lt;b&gt;created_at&lt;/b&gt;&amp;nbsp;: &lt;i&gt;string {iso8601 datetime}&lt;/i&gt;&lt;br&gt;&lt;/p&gt;" style="verticalAlign=top;align=left;overflow=fill;html=1;whiteSpace=wrap;" vertex="1" parent="1">
          <mxGeometry x="520" y="414" width="220" height="96" as="geometry" />
        </mxCell>
        <mxCell id="M9TQeVOdG1JwByQOwSsy-6" value="&lt;p style=&quot;margin:0px;margin-top:4px;text-align:center;text-decoration:underline;&quot;&gt;&lt;b&gt;File&lt;/b&gt;&lt;/p&gt;&lt;hr size=&quot;1&quot; style=&quot;border-style:solid;&quot;&gt;&lt;p style=&quot;margin:0px;margin-left:8px;&quot;&gt;&lt;i&gt;[PK]&lt;/i&gt;&amp;nbsp;&lt;b&gt;id&lt;/b&gt;&amp;nbsp;:&amp;nbsp;&lt;i&gt;string {uuid7}&lt;br&gt;&lt;/i&gt;&lt;i&gt;[FK]&amp;nbsp;&lt;/i&gt;&lt;b&gt;file_paste_id&lt;/b&gt;&amp;nbsp;:&amp;nbsp;&lt;i&gt;string {uuid7}&lt;br&gt;&lt;/i&gt;&lt;b&gt;name&lt;/b&gt;&amp;nbsp;:&amp;nbsp;&lt;i&gt;string&lt;/i&gt;&lt;br&gt;&lt;/p&gt;" style="verticalAlign=top;align=left;overflow=fill;html=1;whiteSpace=wrap;" vertex="1" parent="1">
          <mxGeometry x="810" y="424" width="220" height="76" as="geometry" />
        </mxCell>
        <mxCell id="M9TQeVOdG1JwByQOwSsy-9" style="edgeStyle=orthogonalEdgeStyle;rounded=0;orthogonalLoop=1;jettySize=auto;html=1;exitX=1;exitY=0.25;exitDx=0;exitDy=0;entryX=0;entryY=0.5;entryDx=0;entryDy=0;startArrow=ERone;startFill=0;endArrow=ERzeroToMany;endFill=0;" edge="1" parent="1" source="M9TQeVOdG1JwByQOwSsy-3" target="M9TQeVOdG1JwByQOwSsy-4">
          <mxGeometry relative="1" as="geometry">
            <mxPoint x="430" y="443" as="sourcePoint" />
            <mxPoint x="530" y="472" as="targetPoint" />
          </mxGeometry>
        </mxCell>
      </root>
    </mxGraphModel>
  </diagram>
</mxfile>
